/* XPM */
static char * home99_xpm[] = {
"29 29 508 2",
"  	c None",
". 	c #FFFFFD",
"+ 	c #72B689",
"@ 	c #C5DDCE",
"# 	c #DCEBE2",
"$ 	c #C4F3C2",
"% 	c #96C794",
"& 	c #FDFEFC",
"* 	c #FDFFFC",
"= 	c #FCFEF9",
"- 	c #FCFDF9",
"; 	c #FBFDF8",
"> 	c #FBFCF8",
", 	c #FCFBFA",
"' 	c #CCE9CC",
") 	c #99C9A3",
"! 	c #E3EEE5",
"~ 	c #E1EDDD",
"{ 	c #DAD5D8",
"] 	c #B7BAB8",
"^ 	c #F8FBF7",
"/ 	c #F8FCF7",
"( 	c #F7FCF7",
"_ 	c #F8FBF6",
": 	c #F7FBF1",
"< 	c #F7FAF2",
"[ 	c #F6FAF3",
"} 	c #ECEBE9",
"| 	c #E6F0DC",
"1 	c #74B477",
"2 	c #678E68",
"3 	c #867B68",
"4 	c #6A6950",
"5 	c #42673B",
"6 	c #90B38F",
"7 	c #F8F8F2",
"8 	c #FBFCF6",
"9 	c #F3F8F1",
"0 	c #F4FAF3",
"a 	c #F7F9F6",
"b 	c #EFFBF4",
"c 	c #FAF9F6",
"d 	c #EBFFF7",
"e 	c #FAF5EE",
"f 	c #ECF0A4",
"g 	c #EDF1C1",
"h 	c #F5FAEC",
"i 	c #F2F9F4",
"j 	c #B8C2AD",
"k 	c #C0BEB0",
"l 	c #D5F1CF",
"m 	c #7D9F73",
"n 	c #8D7961",
"o 	c #72674A",
"p 	c #4F7843",
"q 	c #B7DBB8",
"r 	c #F3FDF5",
"s 	c #F3FBF3",
"t 	c #F7FDF6",
"u 	c #F0F1E3",
"v 	c #F4E8E0",
"w 	c #ECFAED",
"x 	c #F4F9F2",
"y 	c #F4F6F2",
"z 	c #E4ECC3",
"A 	c #EAF0D8",
"B 	c #F3F7F6",
"C 	c #F4FBF4",
"D 	c #EDF0E6",
"E 	c #ECF2E9",
"F 	c #EAF9F1",
"G 	c #C8E9C9",
"H 	c #7EA36F",
"I 	c #8D7A5E",
"J 	c #87775C",
"K 	c #9EBE90",
"L 	c #8BAD8E",
"M 	c #E1EEE5",
"N 	c #EFFAF1",
"O 	c #F4FBF3",
"P 	c #F5F9F2",
"Q 	c #E9C8C3",
"R 	c #CC9497",
"S 	c #F0F3E9",
"T 	c #F7F8F3",
"U 	c #F1FAF8",
"V 	c #F2FBF0",
"W 	c #F4FCF2",
"X 	c #F3F9F9",
"Y 	c #F4FEEA",
"Z 	c #F7FBF8",
"` 	c #EFF8F2",
" .	c #F7FBFD",
"..	c #F7F4EE",
"+.	c #A2DCA3",
"@.	c #85B076",
"#.	c #A09B7D",
"$.	c #CABFB0",
"%.	c #E2ECDC",
"&.	c #B8C4B7",
"*.	c #C2C7C0",
"=.	c #E0E5DE",
"-.	c #F6FBF4",
";.	c #F5FAF3",
">.	c #F9E7E7",
",.	c #F7DEDF",
"'.	c #F7F2EE",
").	c #EFFDF4",
"!.	c #F0F7F1",
"~.	c #F6FCF6",
"{.	c #F1FBF1",
"].	c #ECF8F0",
"^.	c #D5EABD",
"/.	c #EFFCFA",
"(.	c #FBFAF7",
"_.	c #F7FCF5",
":.	c #E8FAE8",
"<.	c #74AB72",
"[.	c #C8D2B9",
"}.	c #F8F5F0",
"|.	c #E0DEDF",
"1.	c #AAA5A1",
"2.	c #90877C",
"3.	c #C6BDB1",
"4.	c #ECEAE0",
"5.	c #F3FCF6",
"6.	c #EFFEF7",
"7.	c #E6FBF1",
"8.	c #F5F9F3",
"9.	c #E9FBF2",
"0.	c #F7FAF1",
"a.	c #F4FCEA",
"b.	c #D5E3D8",
"c.	c #8EA878",
"d.	c #E3F3F3",
"e.	c #F9FAF6",
"f.	c #F9FDF2",
"g.	c #EDFDEC",
"h.	c #FBE7E6",
"i.	c #EDEBDD",
"j.	c #58B55A",
"k.	c #B6DBBC",
"l.	c #EBF7F1",
"m.	c #DFDBDC",
"n.	c #A69F95",
"o.	c #968973",
"p.	c #C2A88E",
"q.	c #C7AC92",
"r.	c #D2C4B2",
"s.	c #EAF4ED",
"t.	c #EFF9F3",
"u.	c #F5FCF2",
"v.	c #F3FAF1",
"w.	c #F3FBF2",
"x.	c #F3FAED",
"y.	c #F1F9F5",
"z.	c #E3EEE3",
"A.	c #EEFCF3",
"B.	c #F0FBF1",
"C.	c #F9F1E5",
"D.	c #D5928F",
"E.	c #D9BEBD",
"F.	c #A5E597",
"G.	c #EEF9D3",
"H.	c #DCDFD8",
"I.	c #A29897",
"J.	c #99836D",
"K.	c #C5A47F",
"L.	c #D8B08B",
"M.	c #D0AA89",
"N.	c #BAA288",
"O.	c #D3D0BE",
"P.	c #F2F7F0",
"Q.	c #F2FAF3",
"R.	c #F2F7E9",
"S.	c #F1F4E3",
"T.	c #F6FCF1",
"U.	c #F5F9F7",
"V.	c #F7FDF4",
"W.	c #F3F9FB",
"X.	c #F6F9F2",
"Y.	c #F9F9F0",
"Z.	c #F5FBF2",
"`.	c #EDF7EB",
" +	c #DBC3BE",
".+	c #A7A29E",
"++	c #8FCC8E",
"@+	c #F3EEDA",
"#+	c #CBCA80",
"$+	c #978E66",
"%+	c #9D8670",
"&+	c #C7A487",
"*+	c #D4AA83",
"=+	c #D0A379",
"-+	c #D3A780",
";+	c #C7A480",
">+	c #B8A180",
",+	c #D6D0C1",
"'+	c #F7F8F1",
")+	c #F5FCF5",
"!+	c #CCD0C4",
"~+	c #A9A999",
"{+	c #F2F9EB",
"]+	c #F5FAF8",
"^+	c #F6FBE9",
"/+	c #F7FDDC",
"(+	c #F7FCFB",
"_+	c #EEF3F2",
":+	c #D8DEDD",
"<+	c #AFBAB3",
"[+	c #91887F",
"}+	c #69764C",
"|+	c #74B96E",
"1+	c #BBBBAA",
"2+	c #928962",
"3+	c #A28461",
"4+	c #C7A07B",
"5+	c #CEAB82",
"6+	c #CBA97F",
"7+	c #CCA27C",
"8+	c #C89C76",
"9+	c #C99E76",
"0+	c #BE976A",
"a+	c #BCA78E",
"b+	c #DCD6C9",
"c+	c #F3FAF5",
"d+	c #EDF2EC",
"e+	c #E6E8DF",
"f+	c #F3FAE9",
"g+	c #F4F9EC",
"h+	c #F2F6DA",
"i+	c #D9E884",
"j+	c #CBCECA",
"k+	c #B3AFAA",
"l+	c #9A8981",
"m+	c #917D65",
"n+	c #AC8564",
"o+	c #88A55C",
"p+	c #A8A17A",
"q+	c #A78966",
"r+	c #C59B76",
"s+	c #CFA078",
"t+	c #CBA276",
"u+	c #D0AE84",
"v+	c #C3A079",
"w+	c #C8A27B",
"x+	c #C69A74",
"y+	c #C4966F",
"z+	c #CEA782",
"A+	c #CAB5A1",
"B+	c #E0E1DD",
"C+	c #F4FAF6",
"D+	c #F4FAF0",
"E+	c #F1FBF6",
"F+	c #ECF2EB",
"G+	c #CDCCC0",
"H+	c #9F9B77",
"I+	c #928274",
"J+	c #9C7F67",
"K+	c #B38C6B",
"L+	c #C59C70",
"M+	c #C59A6B",
"N+	c #989F55",
"O+	c #BAB188",
"P+	c #C8A47E",
"Q+	c #CCA27B",
"R+	c #C49870",
"S+	c #C49A70",
"T+	c #A5875D",
"U+	c #A08861",
"V+	c #9A7F58",
"W+	c #B49670",
"X+	c #A07D5A",
"Y+	c #D4B28B",
"Z+	c #CEB193",
"`+	c #C3B2A1",
" @	c #E2DFD7",
".@	c #EAEFE9",
"+@	c #D4D5D1",
"@@	c #ADA79D",
"#@	c #948572",
"$@	c #947C63",
"%@	c #AC8F71",
"&@	c #C1A07E",
"*@	c #C79F77",
"=@	c #C3976D",
"-@	c #CEA57D",
";@	c #A5B776",
">@	c #CACE9A",
",@	c #E2C19D",
"'@	c #D9B28F",
")@	c #CDA580",
"!@	c #CBA57D",
"~@	c #A08962",
"{@	c #7D6F4B",
"]@	c #6D5E3B",
"^@	c #91805D",
"/@	c #6F5C3A",
"(@	c #B79F7A",
"_@	c #D2AE86",
":@	c #C89F7B",
"<@	c #AC9581",
"[@	c #979086",
"}@	c #978472",
"|@	c #9D8369",
"1@	c #B79571",
"2@	c #C79E71",
"3@	c #C99F73",
"4@	c #D3AC85",
"5@	c #DBB690",
"6@	c #E2BF9A",
"7@	c #DCB995",
"8@	c #98B075",
"9@	c #D8CFA2",
"0@	c #EACDAC",
"a@	c #E9C5A4",
"b@	c #E2BC9A",
"c@	c #DBB994",
"d@	c #A58E68",
"e@	c #776843",
"f@	c #6F603B",
"g@	c #766742",
"h@	c #685934",
"i@	c #BCA07A",
"j@	c #CEA67D",
"k@	c #D0A179",
"l@	c #BB9673",
"m@	c #AD9273",
"n@	c #B5936F",
"o@	c #CCA782",
"p@	c #C69F76",
"q@	c #C69E72",
"r@	c #D4AD81",
"s@	c #EDC8A2",
"t@	c #EDCDAB",
"u@	c #DFBE9C",
"v@	c #D7B38F",
"w@	c #C0AC81",
"x@	c #E3CCB0",
"y@	c #E1C5A5",
"z@	c #E1BFA0",
"A@	c #DBB897",
"B@	c #D4B390",
"C@	c #A58B66",
"D@	c #8B764F",
"E@	c #79653F",
"F@	c #927F58",
"G@	c #715F38",
"H@	c #C39F78",
"I@	c #D2A984",
"J@	c #C59A75",
"K@	c #C99E72",
"L@	c #C69C6A",
"M@	c #C8A071",
"N@	c #CAA479",
"O@	c #D1AE87",
"P@	c #DDBB98",
"Q@	c #DBB997",
"R@	c #E3C19F",
"S@	c #DFC0A1",
"T@	c #DAB998",
"U@	c #D6AE87",
"V@	c #DAB295",
"W@	c #DDCBA4",
"X@	c #DFBD97",
"Y@	c #DCBA95",
"Z@	c #D7B590",
"`@	c #D4B28C",
" #	c #A28A64",
".#	c #776841",
"+#	c #72633C",
"@#	c #84754E",
"##	c #685932",
"$#	c #C5A783",
"%#	c #E5C49F",
"&#	c #DBB992",
"*#	c #D1AD86",
"=#	c #CCA77F",
"-#	c #CEAB88",
";#	c #E0C2A3",
">#	c #E5C8A9",
",#	c #E2C2A0",
"'#	c #D8B592",
")#	c #DEBB9A",
"!#	c #DBB896",
"~#	c #D6B08C",
"{#	c #CEA57E",
"]#	c #CCB08F",
"^#	c #DBC7A9",
"/#	c #D9B690",
"(#	c #D8B58E",
"_#	c #D3B18A",
":#	c #A28A63",
"<#	c #877851",
"[#	c #73643D",
"}#	c #7F7049",
"|#	c #695A33",
"1#	c #C3A988",
"2#	c #E9CDAC",
"3#	c #EACBA8",
"4#	c #E2C39E",
"5#	c #E3C09B",
"6#	c #EFCFAE",
"7#	c #E4C5A5",
"8#	c #DDBB97",
"9#	c #D7B390",
"0#	c #D5B18F",
"a#	c #D9B18C",
"b#	c #D1A780",
"c#	c #C49A73",
"d#	c #D5BD9E",
"e#	c #D3AD86",
"f#	c #D2AD85",
"g#	c #CFAA82",
"h#	c #CDA880",
"i#	c #A28961",
"j#	c #7D6E47",
"k#	c #766740",
"l#	c #8A7B54",
"m#	c #675831",
"n#	c #C2A888",
"o#	c #E0C5A5",
"p#	c #DDC09E",
"q#	c #DCBE9A",
"r#	c #DAB995",
"s#	c #E0BA95",
"t#	c #E4C2A0",
"u#	c #DFBE9D",
"v#	c #DAB792",
"w#	c #D2AC88",
"x#	c #D3AC88",
"y#	c #D2A882",
"z#	c #C39A75",
"A#	c #DBC1AA",
"B#	c #CCA67D",
"C#	c #CDA67D",
"D#	c #CBA57B",
"E#	c #CAA37A",
"F#	c #9B8159",
"G#	c #7B6C45",
"H#	c #6E5F38",
"I#	c #796A43",
"J#	c #64552E",
"K#	c #C1A582",
"L#	c #E0C19D",
"M#	c #DEBD98",
"N#	c #DDBA94",
"O#	c #D6B28B",
"P#	c #DCB58E",
"Q#	c #DFBC98",
"R#	c #D9B794",
"S#	c #D4AF89",
"T#	c #CCA47D",
"U#	c #CEA47D",
"V#	c #CBA27B",
"W#	c #D8BFB2",
"X#	c #C7A17A",
"Y#	c #C69D73",
"Z#	c #C89D6F",
"`#	c #C99B6A",
" $	c #A38455",
".$	c #89784E",
"+$	c #796940",
"@$	c #92825A",
"#$	c #BFA282",
"$$	c #D7B497",
"%$	c #DBB296",
"&$	c #DCB092",
"*$	c #D8AD8C",
"=$	c #D5B187",
"-$	c #E1BB9A",
";$	c #D6AE8F",
">$	c #CDA581",
",$	c #C49E75",
"'$	c #C9AA8E",
")$	c #C4A789",
"!$	c #C4A480",
"~$	c #A08760",
"{$	c #6E5E36",
"]$	c #726039",
"^$	c #837049",
"/$	c #69552D",
"($	c #BBA474",
"_$	c #D0B282",
":$	c #D3AD7F",
"<$	c #D6B080",
"[$	c #CCA978",
"}$	c #CDA984",
"|$	c #DDB58C",
"1$	c #D0A77B",
"2$	c #C9A577",
"3$	c #8E8167",
"4$	c #766647",
"5$	c #6C5634",
"6$	c #6D552E",
"7$	c #BA9D79",
"8$	c #CBA782",
"9$	c #CDA481",
"0$	c #CCA384",
"a$	c #C7A183",
"b$	c #CEA47F",
"c$	c #D3AA7B",
"d$	c #C9A479",
"e$	c #C9A37E",
"f$	c #CA9C81",
"g$	c #C18E84",
"h$	c #C2908C",
"i$	c #C99E74",
"                                                          ",
"                                                          ",
"                                                          ",
"                                                          ",
"                                        . . .             ",
"        + @ # $ %               & * & = - ; > , '         ",
"        ) ! ~ { ]           ^ / ^ ( _ : < [ [ } | 1       ",
"          2 3 4 5 6 7 8 9 0 a b c d e f g h i j k l       ",
"          m n o p q r s t [ u v w x y z A B C D E F G     ",
"          H I J K L M N O P Q R S T U V W X Y Z `  ...+.  ",
"          @.#.$.%.&.*.=.-.;.>.,.'.).!.~.{.].^./.t (._.:.  ",
"          <.[.}.|.1.2.3.4.5.6.7.8.9.y 0.a.b.c.d.e.f.g.h.i.",
"        j.k.l.m.n.o.p.q.r.s.t.s u.v.w.-.x.y.z.A.).B.C.D.E.",
"        F.G.H.I.J.K.L.M.N.O.P.Q.s R.S.T.U.V.W.X.Y.Z.`. +.+",
"      ++@+#+$+%+&+*+=+-+;+>+,+'+)+!+~+{+]+^+/+(+_+:+<+[+}+",
"      |+1+2+3+4+5+6+7+8+9+0+a+b+c+d+e+f+g+h+i+j+k+l+m+n+o+",
"        p+q+r+s+t+u+v+w+x+y+z+A+B+C+D+E+F+G+H+I+J+K+L+M+N+",
"        O+P+Q+R+S+T+U+V+W+X+Y+Z+`+ @.@+@@@#@$@%@&@*@=@-@;@",
"        >@,@'@)@!@~@{@]@^@/@(@_@:@<@[@}@|@1@2@3@4@5@6@7@8@",
"        9@0@a@b@c@d@e@f@g@h@i@j@k@l@m@n@o@p@q@r@s@t@u@v@w@",
"        x@y@z@A@B@C@D@E@F@G@H@I@J@K@L@M@N@O@P@Q@R@S@T@U@V@",
"        W@X@Y@Z@`@ #.#+#@###$#%#&#*#=#-#;#>#,#'#)#!#~#{#]#",
"        ^#/#(#_#O@:#<#[#}#|#1#2#3#4#c@5#6#7#8#9#0#a#b#c#  ",
"        d#e#f#g#h#i#j#k#l#m#n#o#p#q#r#s#t#u#v#w#x#y#z#    ",
"        A#B#C#D#E#F#G#H#I#J#K#L#M#N#O#P#Q#R#S#T#U#V#      ",
"        W#X#Y#Z#`# $.$+$@$H##$$$%$&$*$=$-$;$>$,$          ",
"            '$)$!$~${$]$^$/$($_$:$<$[$}$|$1$2$            ",
"                    3$4$5$6$7$8$9$0$a$b$c$d$              ",
"                              e$f$g$h$i$                  "};
