/* XPM */
static char * sethome99_xpm[] = {
"29 29 444 2",
"  	c None",
". 	c #F4073A",
"+ 	c #F4000C",
"@ 	c #F93213",
"# 	c #FFFFFD",
"$ 	c #72B689",
"% 	c #C5DDCE",
"& 	c #DCEBE2",
"* 	c #C4F3C2",
"= 	c #96C794",
"- 	c #FCFEF9",
"; 	c #FCFDF9",
"> 	c #FBFDF8",
", 	c #FBFCF8",
"' 	c #FCFBFA",
") 	c #CCE9CC",
"! 	c #99C9A3",
"~ 	c #E3EEE5",
"{ 	c #E1EDDD",
"] 	c #DAD5D8",
"^ 	c #B7BAB8",
"/ 	c #F7FBF1",
"( 	c #F7FAF2",
"_ 	c #F6FAF3",
": 	c #ECEBE9",
"< 	c #E6F0DC",
"[ 	c #74B477",
"} 	c #678E68",
"| 	c #867B68",
"1 	c #6A6950",
"2 	c #42673B",
"3 	c #90B38F",
"4 	c #F8F8F2",
"5 	c #FBFCF6",
"6 	c #ECF0A4",
"7 	c #EDF1C1",
"8 	c #F5FAEC",
"9 	c #F2F9F4",
"0 	c #B8C2AD",
"a 	c #C0BEB0",
"b 	c #D5F1CF",
"c 	c #7D9F73",
"d 	c #8D7961",
"e 	c #72674A",
"f 	c #4F7843",
"g 	c #B7DBB8",
"h 	c #F3FDF5",
"i 	c #F3FBF3",
"j 	c #E4ECC3",
"k 	c #EAF0D8",
"l 	c #F3F7F6",
"m 	c #F4FBF4",
"n 	c #EDF0E6",
"o 	c #ECF2E9",
"p 	c #EAF9F1",
"q 	c #C8E9C9",
"r 	c #7EA36F",
"s 	c #8D7A5E",
"t 	c #87775C",
"u 	c #9EBE90",
"v 	c #F4FEEA",
"w 	c #F7FBF8",
"x 	c #EFF8F2",
"y 	c #F7FBFD",
"z 	c #F7F4EE",
"A 	c #A2DCA3",
"B 	c #85B076",
"C 	c #A09B7D",
"D 	c #CABFB0",
"E 	c #E2ECDC",
"F 	c #B8C4B7",
"G 	c #ECF8F0",
"H 	c #D5EABD",
"I 	c #EFFCFA",
"J 	c #F7FDF6",
"K 	c #FBFAF7",
"L 	c #F7FCF5",
"M 	c #E8FAE8",
"N 	c #74AB72",
"O 	c #C8D2B9",
"P 	c #F8F5F0",
"Q 	c #E0DEDF",
"R 	c #AAA5A1",
"S 	c #90877C",
"T 	c #F4FCEA",
"U 	c #D5E3D8",
"V 	c #8EA878",
"W 	c #E3F3F3",
"X 	c #F9FAF6",
"Y 	c #F9FDF2",
"Z 	c #EDFDEC",
"` 	c #FBE7E6",
" .	c #EDEBDD",
"..	c #58B55A",
"+.	c #B6DBBC",
"@.	c #EBF7F1",
"#.	c #DFDBDC",
"$.	c #A69F95",
"%.	c #968973",
"&.	c #C2A88E",
"*.	c #C7AC92",
"=.	c #F6FBF4",
"-.	c #F3FAED",
";.	c #F1F9F5",
">.	c #E3EEE3",
",.	c #EEFCF3",
"'.	c #EFFDF4",
").	c #F0FBF1",
"!.	c #F9F1E5",
"~.	c #D5928F",
"{.	c #D9BEBD",
"].	c #A5E597",
"^.	c #EEF9D3",
"/.	c #DCDFD8",
"(.	c #A29897",
"_.	c #99836D",
":.	c #C5A47F",
"<.	c #D8B08B",
"[.	c #D0AA89",
"}.	c #BAA288",
"|.	c #F1F4E3",
"1.	c #F6FCF1",
"2.	c #F5F9F7",
"3.	c #F7FDF4",
"4.	c #F3F9FB",
"5.	c #F6F9F2",
"6.	c #F9F9F0",
"7.	c #F5FBF2",
"8.	c #EDF7EB",
"9.	c #DBC3BE",
"0.	c #A7A29E",
"a.	c #8FCC8E",
"b.	c #F3EEDA",
"c.	c #CBCA80",
"d.	c #978E66",
"e.	c #9D8670",
"f.	c #C7A487",
"g.	c #D4AA83",
"h.	c #D0A379",
"i.	c #D3A780",
"j.	c #C7A480",
"k.	c #A9A999",
"l.	c #F2F9EB",
"m.	c #F5FAF8",
"n.	c #F6FBE9",
"o.	c #F7FDDC",
"p.	c #F7FCFB",
"q.	c #EEF3F2",
"r.	c #D8DEDD",
"s.	c #AFBAB3",
"t.	c #91887F",
"u.	c #69764C",
"v.	c #74B96E",
"w.	c #BBBBAA",
"x.	c #928962",
"y.	c #A28461",
"z.	c #C7A07B",
"A.	c #CEAB82",
"B.	c #CBA97F",
"C.	c #CCA27C",
"D.	c #C89C76",
"E.	c #C99E76",
"F.	c #BE976A",
"G.	c #EDF2EC",
"H.	c #E6E8DF",
"I.	c #F3FAE9",
"J.	c #F4F9EC",
"K.	c #F2F6DA",
"L.	c #D9E884",
"M.	c #CBCECA",
"N.	c #B3AFAA",
"O.	c #9A8981",
"P.	c #917D65",
"Q.	c #AC8564",
"R.	c #88A55C",
"S.	c #A8A17A",
"T.	c #A78966",
"U.	c #C59B76",
"V.	c #CFA078",
"W.	c #CBA276",
"X.	c #D0AE84",
"Y.	c #C3A079",
"Z.	c #C8A27B",
"`.	c #C69A74",
" +	c #C4966F",
".+	c #CEA782",
"++	c #E0E1DD",
"@+	c #F4FAF6",
"#+	c #F4FAF0",
"$+	c #F1FBF6",
"%+	c #ECF2EB",
"&+	c #CDCCC0",
"*+	c #9F9B77",
"=+	c #928274",
"-+	c #9C7F67",
";+	c #B38C6B",
">+	c #C59C70",
",+	c #C59A6B",
"'+	c #989F55",
")+	c #BAB188",
"!+	c #C8A47E",
"~+	c #CCA27B",
"{+	c #C49870",
"]+	c #C49A70",
"^+	c #A5875D",
"/+	c #A08861",
"(+	c #9A7F58",
"_+	c #B49670",
":+	c #A07D5A",
"<+	c #D4B28B",
"[+	c #CEB193",
"}+	c #C3B2A1",
"|+	c #E2DFD7",
"1+	c #EAEFE9",
"2+	c #D4D5D1",
"3+	c #ADA79D",
"4+	c #948572",
"5+	c #947C63",
"6+	c #AC8F71",
"7+	c #C1A07E",
"8+	c #C79F77",
"9+	c #C3976D",
"0+	c #CEA57D",
"a+	c #A5B776",
"b+	c #CACE9A",
"c+	c #E2C19D",
"d+	c #D9B28F",
"e+	c #CDA580",
"f+	c #CBA57D",
"g+	c #A08962",
"h+	c #7D6F4B",
"i+	c #6D5E3B",
"j+	c #91805D",
"k+	c #6F5C3A",
"l+	c #B79F7A",
"m+	c #D2AE86",
"n+	c #C89F7B",
"o+	c #AC9581",
"p+	c #979086",
"q+	c #978472",
"r+	c #9D8369",
"s+	c #B79571",
"t+	c #C79E71",
"u+	c #C99F73",
"v+	c #D3AC85",
"w+	c #DBB690",
"x+	c #E2BF9A",
"y+	c #DCB995",
"z+	c #98B075",
"A+	c #D8CFA2",
"B+	c #EACDAC",
"C+	c #E9C5A4",
"D+	c #E2BC9A",
"E+	c #DBB994",
"F+	c #A58E68",
"G+	c #776843",
"H+	c #6F603B",
"I+	c #766742",
"J+	c #685934",
"K+	c #BCA07A",
"L+	c #CEA67D",
"M+	c #D0A179",
"N+	c #BB9673",
"O+	c #AD9273",
"P+	c #B5936F",
"Q+	c #CCA782",
"R+	c #C69F76",
"S+	c #C69E72",
"T+	c #D4AD81",
"U+	c #EDC8A2",
"V+	c #EDCDAB",
"W+	c #DFBE9C",
"X+	c #D7B38F",
"Y+	c #C0AC81",
"Z+	c #E3CCB0",
"`+	c #E1C5A5",
" @	c #E1BFA0",
".@	c #DBB897",
"+@	c #D4B390",
"@@	c #A58B66",
"#@	c #8B764F",
"$@	c #79653F",
"%@	c #927F58",
"&@	c #715F38",
"*@	c #C39F78",
"=@	c #D2A984",
"-@	c #C59A75",
";@	c #C99E72",
">@	c #C69C6A",
",@	c #C8A071",
"'@	c #CAA479",
")@	c #D1AE87",
"!@	c #DDBB98",
"~@	c #DBB997",
"{@	c #E3C19F",
"]@	c #DFC0A1",
"^@	c #DAB998",
"/@	c #D6AE87",
"(@	c #DAB295",
"_@	c #DDCBA4",
":@	c #DFBD97",
"<@	c #DCBA95",
"[@	c #D7B590",
"}@	c #D4B28C",
"|@	c #A28A64",
"1@	c #776841",
"2@	c #72633C",
"3@	c #84754E",
"4@	c #685932",
"5@	c #C5A783",
"6@	c #E5C49F",
"7@	c #DBB992",
"8@	c #D1AD86",
"9@	c #CCA77F",
"0@	c #CEAB88",
"a@	c #E0C2A3",
"b@	c #E5C8A9",
"c@	c #E2C2A0",
"d@	c #D8B592",
"e@	c #DEBB9A",
"f@	c #DBB896",
"g@	c #D6B08C",
"h@	c #CEA57E",
"i@	c #CCB08F",
"j@	c #DBC7A9",
"k@	c #D9B690",
"l@	c #D8B58E",
"m@	c #D3B18A",
"n@	c #A28A63",
"o@	c #877851",
"p@	c #73643D",
"q@	c #7F7049",
"r@	c #695A33",
"s@	c #C3A988",
"t@	c #E9CDAC",
"u@	c #EACBA8",
"v@	c #E2C39E",
"w@	c #E3C09B",
"x@	c #EFCFAE",
"y@	c #E4C5A5",
"z@	c #DDBB97",
"A@	c #D7B390",
"B@	c #D5B18F",
"C@	c #D9B18C",
"D@	c #D1A780",
"E@	c #C49A73",
"F@	c #D5BD9E",
"G@	c #D3AD86",
"H@	c #D2AD85",
"I@	c #CFAA82",
"J@	c #CDA880",
"K@	c #A28961",
"L@	c #7D6E47",
"M@	c #766740",
"N@	c #8A7B54",
"O@	c #675831",
"P@	c #C2A888",
"Q@	c #E0C5A5",
"R@	c #DDC09E",
"S@	c #DCBE9A",
"T@	c #DAB995",
"U@	c #E0BA95",
"V@	c #E4C2A0",
"W@	c #DFBE9D",
"X@	c #DAB792",
"Y@	c #D2AC88",
"Z@	c #D3AC88",
"`@	c #D2A882",
" #	c #C39A75",
".#	c #DBC1AA",
"+#	c #CCA67D",
"@#	c #CDA67D",
"##	c #CBA57B",
"$#	c #CAA37A",
"%#	c #9B8159",
"&#	c #7B6C45",
"*#	c #6E5F38",
"=#	c #796A43",
"-#	c #64552E",
";#	c #C1A582",
">#	c #E0C19D",
",#	c #DEBD98",
"'#	c #DDBA94",
")#	c #D6B28B",
"!#	c #DCB58E",
"~#	c #DFBC98",
"{#	c #D9B794",
"]#	c #D4AF89",
"^#	c #CCA47D",
"/#	c #CEA47D",
"(#	c #CBA27B",
"_#	c #D8BFB2",
":#	c #C7A17A",
"<#	c #C69D73",
"[#	c #C89D6F",
"}#	c #C99B6A",
"|#	c #A38455",
"1#	c #89784E",
"2#	c #796940",
"3#	c #92825A",
"4#	c #BFA282",
"5#	c #D7B497",
"6#	c #DBB296",
"7#	c #DCB092",
"8#	c #D8AD8C",
"9#	c #D5B187",
"0#	c #E1BB9A",
"a#	c #D6AE8F",
"b#	c #CDA581",
"c#	c #C49E75",
"d#	c #C9AA8E",
"e#	c #C4A789",
"f#	c #C4A480",
"g#	c #A08760",
"h#	c #6E5E36",
"i#	c #726039",
"j#	c #837049",
"k#	c #69552D",
"l#	c #BBA474",
"m#	c #D0B282",
"n#	c #D3AD7F",
"o#	c #D6B080",
"p#	c #CCA978",
"q#	c #CDA984",
"r#	c #DDB58C",
"s#	c #D0A77B",
"t#	c #C9A577",
"u#	c #8E8167",
"v#	c #766647",
"w#	c #6C5634",
"x#	c #6D552E",
"y#	c #BA9D79",
"z#	c #CBA782",
"A#	c #CDA481",
"B#	c #CCA384",
"C#	c #C7A183",
"D#	c #CEA47F",
"E#	c #D3AA7B",
"F#	c #C9A479",
"G#	c #C9A37E",
"H#	c #CA9C81",
"I#	c #C18E84",
"J#	c #C2908C",
"K#	c #C99E74",
"                        . . . + + @ .                     ",
"                        . . . + + @ .                     ",
"                        . . . + + @ .                     ",
"                        . . . + + @ .                     ",
"                        . . . + + @ .   # # #             ",
"        $ % & * =       . . . + + @ . - ; > , ' )         ",
"        ! ~ { ] ^       . . . + + @ . / ( _ _ : < [       ",
"          } | 1 2 3 4 5 . . . + + @ . 6 7 8 9 0 a b       ",
"          c d e f g h i . . . + + @ . j k l m n o p q     ",
"          r s t u . . . . . . + @ @ . . . . v w x y z A   ",
"          B C D E F . . . . . + + . . . . G H I J K L M   ",
"          N O P Q R S . . . . + + . . . T U V W X Y Z `  .",
"        ..+.@.#.$.%.&.*.. . . + . . . =.-.;.>.,.'.).!.~.{.",
"        ].^./.(._.:.<.[.}.. . + . . |.1.2.3.4.5.6.7.8.9.0.",
"      a.b.c.d.e.f.g.h.i.j.. . + . . k.l.m.n.o.p.q.r.s.t.u.",
"      v.w.x.y.z.A.B.C.D.E.F.. + . G.H.I.J.K.L.M.N.O.P.Q.R.",
"        S.T.U.V.W.X.Y.Z.`. +.+. ++@+#+$+%+&+*+=+-+;+>+,+'+",
"        )+!+~+{+]+^+/+(+_+:+<+[+}+|+1+2+3+4+5+6+7+8+9+0+a+",
"        b+c+d+e+f+g+h+i+j+k+l+m+n+o+p+q+r+s+t+u+v+w+x+y+z+",
"        A+B+C+D+E+F+G+H+I+J+K+L+M+N+O+P+Q+R+S+T+U+V+W+X+Y+",
"        Z+`+ @.@+@@@#@$@%@&@*@=@-@;@>@,@'@)@!@~@{@]@^@/@(@",
"        _@:@<@[@}@|@1@2@3@4@5@6@7@8@9@0@a@b@c@d@e@f@g@h@i@",
"        j@k@l@m@)@n@o@p@q@r@s@t@u@v@E+w@x@y@z@A@B@C@D@E@  ",
"        F@G@H@I@J@K@L@M@N@O@P@Q@R@S@T@U@V@W@X@Y@Z@`@ #    ",
"        .#+#@###$#%#&#*#=#-#;#>#,#'#)#!#~#{#]#^#/#(#      ",
"        _#:#<#[#}#|#1#2#3#*#4#5#6#7#8#9#0#a#b#c#          ",
"            d#e#f#g#h#i#j#k#l#m#n#o#p#q#r#s#t#            ",
"                    u#v#w#x#y#z#A#B#C#D#E#F#              ",
"                              G#H#I#J#K#                  "};
